<mxfile host="app.diagrams.net" modified="2022-05-11T08:00:17.619Z" agent="5.0 (Windows NT 10.0; Win64; x64) AppleWebKit/537.36 (KHTML, like Gecko) Chrome/101.0.4951.54 Safari/537.36" etag="Uu6Kmt-LKfg-jeaFbTYz" version="18.0.2" type="github">
  <diagram id="QQGfE8T_0_qTIBGh_q0m" name="Page-1">
    <mxGraphModel dx="1220" dy="1112" grid="1" gridSize="10" guides="1" tooltips="1" connect="1" arrows="1" fold="1" page="1" pageScale="1" pageWidth="850" pageHeight="1100" math="0" shadow="0">
      <root>
        <mxCell id="0" />
        <mxCell id="1" parent="0" />
        <mxCell id="Zc0bt-CZmAqfDHOWrtF3-1" value="Device" style="rounded=0;whiteSpace=wrap;html=1;fillColor=#ffe6cc;strokeColor=#d79b00;verticalAlign=top;align=left;fontStyle=1" parent="1" vertex="1">
          <mxGeometry x="210" y="580" width="340" height="200" as="geometry" />
        </mxCell>
        <mxCell id="Zc0bt-CZmAqfDHOWrtF3-2" value="ES2" style="edgeStyle=orthogonalEdgeStyle;rounded=0;orthogonalLoop=1;jettySize=auto;html=1;exitX=1;exitY=0.5;exitDx=0;exitDy=0;startArrow=classic;startFill=1;fillColor=#f8cecc;strokeColor=#b85450;strokeWidth=2;fontStyle=1" parent="1" source="-lQ-ry36EHElyneKfI74-1" target="-lQ-ry36EHElyneKfI74-4" edge="1">
          <mxGeometry x="0.0435" y="10" relative="1" as="geometry">
            <mxPoint as="offset" />
          </mxGeometry>
        </mxCell>
        <mxCell id="-lQ-ry36EHElyneKfI74-1" value="SM-DP" style="rounded=0;whiteSpace=wrap;html=1;" parent="1" vertex="1">
          <mxGeometry x="310" y="400" width="120" height="40" as="geometry" />
        </mxCell>
        <mxCell id="-lQ-ry36EHElyneKfI74-3" value="eUICC" style="rounded=0;whiteSpace=wrap;html=1;verticalAlign=top;fillColor=#d5e8d4;strokeColor=#82b366;align=left;fontStyle=1" parent="1" vertex="1">
          <mxGeometry x="220" y="610" width="320" height="150" as="geometry" />
        </mxCell>
        <mxCell id="-lQ-ry36EHElyneKfI74-4" value="Operator" style="rounded=0;whiteSpace=wrap;html=1;" parent="1" vertex="1">
          <mxGeometry x="500" y="400" width="120" height="40" as="geometry" />
        </mxCell>
        <mxCell id="Zc0bt-CZmAqfDHOWrtF3-6" value="&lt;b&gt;ES3&lt;/b&gt;" style="edgeStyle=orthogonalEdgeStyle;rounded=0;orthogonalLoop=1;jettySize=auto;html=1;exitX=0.75;exitY=0;exitDx=0;exitDy=0;startArrow=classic;startFill=1;align=right;shape=flexArrow;fillColor=#f8cecc;strokeWidth=2;entryX=0.75;entryY=1;entryDx=0;entryDy=0;strokeColor=#b85450;" parent="1" source="-lQ-ry36EHElyneKfI74-2" target="-lQ-ry36EHElyneKfI74-1" edge="1">
          <mxGeometry x="-0.3846" y="10" relative="1" as="geometry">
            <mxPoint as="offset" />
            <mxPoint x="400" y="200" as="targetPoint" />
            <Array as="points">
              <mxPoint x="400" y="410" />
              <mxPoint x="400" y="410" />
            </Array>
          </mxGeometry>
        </mxCell>
        <mxCell id="-lQ-ry36EHElyneKfI74-17" style="edgeStyle=orthogonalEdgeStyle;rounded=0;orthogonalLoop=1;jettySize=auto;html=1;exitX=0.5;exitY=1;exitDx=0;exitDy=0;entryX=0.5;entryY=1;entryDx=0;entryDy=0;fontSize=9;startArrow=none;startFill=0;" parent="1" source="-lQ-ry36EHElyneKfI74-5" target="-lQ-ry36EHElyneKfI74-6" edge="1">
          <mxGeometry relative="1" as="geometry" />
        </mxCell>
        <mxCell id="-lQ-ry36EHElyneKfI74-18" value="&lt;font style=&quot;font-size: 11px&quot;&gt;Supports with Key-Establishment&lt;/font&gt;" style="edgeStyle=orthogonalEdgeStyle;rounded=0;orthogonalLoop=1;jettySize=auto;html=1;exitX=0.5;exitY=1;exitDx=0;exitDy=0;entryX=0.5;entryY=1;entryDx=0;entryDy=0;fontSize=9;startArrow=none;startFill=0;" parent="1" source="-lQ-ry36EHElyneKfI74-5" target="yTabgHVPEAuYD_ayC8vv-4" edge="1">
          <mxGeometry relative="1" as="geometry">
            <mxPoint x="455" y="750" as="targetPoint" />
            <Array as="points">
              <mxPoint x="270" y="770" />
              <mxPoint x="480" y="770" />
            </Array>
          </mxGeometry>
        </mxCell>
        <mxCell id="-lQ-ry36EHElyneKfI74-5" value="ECASD" style="rounded=1;whiteSpace=wrap;html=1;fillColor=#f5f5f5;fontColor=#333333;strokeColor=#666666;" parent="1" vertex="1">
          <mxGeometry x="220" y="700" width="100" height="50" as="geometry" />
        </mxCell>
        <mxCell id="-lQ-ry36EHElyneKfI74-12" value="&lt;b&gt;ES5&lt;/b&gt;" style="edgeStyle=orthogonalEdgeStyle;rounded=0;orthogonalLoop=1;jettySize=auto;html=1;exitX=0.75;exitY=0;exitDx=0;exitDy=0;startArrow=classic;startFill=1;strokeWidth=2;fillColor=#dae8fc;strokeColor=#6c8ebf;shape=flexArrow;align=right;" parent="1" source="-lQ-ry36EHElyneKfI74-6" edge="1">
          <mxGeometry x="0.375" y="10" relative="1" as="geometry">
            <Array as="points">
              <mxPoint x="400" y="634" />
            </Array>
            <mxPoint as="offset" />
            <mxPoint x="400" y="550" as="targetPoint" />
          </mxGeometry>
        </mxCell>
        <mxCell id="-lQ-ry36EHElyneKfI74-6" value="ISD-R" style="rounded=1;whiteSpace=wrap;html=1;fillColor=#f5f5f5;fontColor=#333333;strokeColor=#666666;" parent="1" vertex="1">
          <mxGeometry x="325" y="700" width="100" height="50" as="geometry" />
        </mxCell>
        <mxCell id="-lQ-ry36EHElyneKfI74-11" value="Profile" style="rounded=0;whiteSpace=wrap;html=1;verticalAlign=top;fillColor=#dae8fc;strokeColor=#6c8ebf;" parent="1" vertex="1">
          <mxGeometry x="430" y="620" width="100" height="110" as="geometry" />
        </mxCell>
        <mxCell id="-lQ-ry36EHElyneKfI74-8" value="MNO-SD" style="rounded=1;whiteSpace=wrap;html=1;fillColor=#f5f5f5;strokeColor=#666666;fontColor=#333333;" parent="1" vertex="1">
          <mxGeometry x="435" y="646" width="90" height="20" as="geometry" />
        </mxCell>
        <mxCell id="-lQ-ry36EHElyneKfI74-15" value="&lt;font style=&quot;font-size: 11px&quot;&gt;&lt;b&gt;ES6&lt;/b&gt;&lt;br&gt;&lt;/font&gt;" style="edgeStyle=orthogonalEdgeStyle;rounded=0;orthogonalLoop=1;jettySize=auto;html=1;exitX=0.75;exitY=1;exitDx=0;exitDy=0;entryX=1;entryY=0.5;entryDx=0;entryDy=0;fontSize=9;startArrow=classic;startFill=1;strokeWidth=2;fillColor=#dae8fc;strokeColor=#6c8ebf;align=left;" parent="1" source="-lQ-ry36EHElyneKfI74-4" target="-lQ-ry36EHElyneKfI74-8" edge="1">
          <mxGeometry x="-0.0029" relative="1" as="geometry">
            <mxPoint as="offset" />
          </mxGeometry>
        </mxCell>
        <mxCell id="-lQ-ry36EHElyneKfI74-24" value="&lt;font style=&quot;font-size: 11px&quot;&gt;Required for Dial-in&lt;/font&gt;" style="edgeStyle=orthogonalEdgeStyle;rounded=0;orthogonalLoop=1;jettySize=auto;html=1;exitX=1;exitY=0.5;exitDx=0;exitDy=0;entryX=0.5;entryY=1;entryDx=0;entryDy=0;fontSize=9;startArrow=none;startFill=0;" parent="1" source="-lQ-ry36EHElyneKfI74-21" target="-lQ-ry36EHElyneKfI74-23" edge="1">
          <mxGeometry x="0.3651" relative="1" as="geometry">
            <mxPoint as="offset" />
          </mxGeometry>
        </mxCell>
        <mxCell id="-lQ-ry36EHElyneKfI74-21" value="NAA" style="rounded=1;whiteSpace=wrap;html=1;fillColor=#f5f5f5;strokeColor=#666666;fontColor=#333333;" parent="1" vertex="1">
          <mxGeometry x="435" y="666" width="90" height="20" as="geometry" />
        </mxCell>
        <mxCell id="-lQ-ry36EHElyneKfI74-23" value="" style="shape=image;html=1;verticalAlign=top;verticalLabelPosition=bottom;labelBackgroundColor=#ffffff;imageAspect=0;aspect=fixed;image=https://cdn4.iconfinder.com/data/icons/internet-networking-and-communication-glyph-24/24/Coverage_level_signal_bars_signal_strength_wireless_connectivity_wireless_internet-128.png;rounded=1;fontSize=9;" parent="1" vertex="1">
          <mxGeometry x="610" y="650" width="60" height="60" as="geometry" />
        </mxCell>
        <mxCell id="Zc0bt-CZmAqfDHOWrtF3-7" value="&lt;b&gt;ES7&lt;/b&gt;" style="edgeStyle=orthogonalEdgeStyle;rounded=0;orthogonalLoop=1;jettySize=auto;html=1;exitX=0;exitY=0.25;exitDx=0;exitDy=0;entryX=0.25;entryY=0;entryDx=0;entryDy=0;startArrow=classic;startFill=1;fillColor=#f8cecc;strokeColor=#b85450;strokeWidth=2;" parent="1" source="-lQ-ry36EHElyneKfI74-2" target="-lQ-ry36EHElyneKfI74-2" edge="1">
          <mxGeometry x="0.0244" y="10" relative="1" as="geometry">
            <Array as="points">
              <mxPoint x="270" y="520" />
              <mxPoint x="270" y="480" />
              <mxPoint x="340" y="480" />
            </Array>
            <mxPoint as="offset" />
          </mxGeometry>
        </mxCell>
        <mxCell id="yTabgHVPEAuYD_ayC8vv-2" value="Policy Rules" style="rounded=1;whiteSpace=wrap;html=1;fillColor=#f5f5f5;strokeColor=#666666;fontColor=#333333;" vertex="1" parent="1">
          <mxGeometry x="435" y="686" width="90" height="20" as="geometry" />
        </mxCell>
        <mxCell id="yTabgHVPEAuYD_ayC8vv-3" value="Other" style="rounded=1;whiteSpace=wrap;html=1;fillColor=#f5f5f5;strokeColor=#666666;fontColor=#333333;" vertex="1" parent="1">
          <mxGeometry x="435" y="706" width="90" height="20" as="geometry" />
        </mxCell>
        <mxCell id="yTabgHVPEAuYD_ayC8vv-4" value="ISD-P" style="rounded=0;whiteSpace=wrap;html=1;fillColor=#f5f5f5;fontColor=#333333;strokeColor=#666666;" vertex="1" parent="1">
          <mxGeometry x="430" y="730" width="100" height="20" as="geometry" />
        </mxCell>
        <mxCell id="yTabgHVPEAuYD_ayC8vv-9" value="" style="edgeStyle=orthogonalEdgeStyle;rounded=0;orthogonalLoop=1;jettySize=auto;html=1;exitX=1;exitY=0.25;exitDx=0;exitDy=0;entryX=0;entryY=0.5;entryDx=0;entryDy=0;startArrow=classic;startFill=1;strokeWidth=2;fillColor=#f8cecc;strokeColor=#b85450;fontStyle=1" edge="1" parent="1" source="-lQ-ry36EHElyneKfI74-2" target="yTabgHVPEAuYD_ayC8vv-8">
          <mxGeometry relative="1" as="geometry" />
        </mxCell>
        <mxCell id="-lQ-ry36EHElyneKfI74-2" value="SM-SR" style="rounded=0;whiteSpace=wrap;html=1;" parent="1" vertex="1">
          <mxGeometry x="310" y="510" width="120" height="40" as="geometry" />
        </mxCell>
        <mxCell id="-lQ-ry36EHElyneKfI74-16" value="&lt;font style=&quot;font-size: 11px&quot;&gt;&lt;b&gt;ES8&lt;/b&gt;&lt;/font&gt;&lt;font style=&quot;font-size: 11px&quot;&gt;&lt;br&gt;&lt;/font&gt;" style="edgeStyle=orthogonalEdgeStyle;rounded=0;orthogonalLoop=1;jettySize=auto;html=1;entryX=0;entryY=0.5;entryDx=0;entryDy=0;fontSize=9;startArrow=classic;startFill=1;align=center;fillColor=#d5e8d4;strokeColor=#82b366;strokeWidth=2;exitX=0.75;exitY=1;exitDx=0;exitDy=0;" parent="1" source="-lQ-ry36EHElyneKfI74-1" target="yTabgHVPEAuYD_ayC8vv-4" edge="1">
          <mxGeometry x="-0.7073" relative="1" as="geometry">
            <Array as="points">
              <mxPoint x="400" y="740" />
            </Array>
            <mxPoint as="offset" />
            <mxPoint x="510" y="440" as="sourcePoint" />
            <mxPoint x="430" y="737.5" as="targetPoint" />
          </mxGeometry>
        </mxCell>
        <mxCell id="yTabgHVPEAuYD_ayC8vv-8" value="M2M SP" style="rounded=0;whiteSpace=wrap;html=1;" vertex="1" parent="1">
          <mxGeometry x="480" y="530" width="100" height="30" as="geometry" />
        </mxCell>
        <mxCell id="Zc0bt-CZmAqfDHOWrtF3-5" value="&lt;span&gt;ES4&lt;/span&gt;" style="edgeStyle=orthogonalEdgeStyle;rounded=0;orthogonalLoop=1;jettySize=auto;html=1;exitX=0.5;exitY=1;exitDx=0;exitDy=0;entryX=1;entryY=0.25;entryDx=0;entryDy=0;startArrow=classic;startFill=1;fillColor=#f8cecc;strokeColor=#b85450;strokeWidth=2;align=center;verticalAlign=middle;fontStyle=1" parent="1" source="-lQ-ry36EHElyneKfI74-4" target="-lQ-ry36EHElyneKfI74-2" edge="1">
          <mxGeometry x="0.6863" y="-15" relative="1" as="geometry">
            <mxPoint as="offset" />
          </mxGeometry>
        </mxCell>
        <mxCell id="yTabgHVPEAuYD_ayC8vv-13" value="ES1" style="edgeStyle=orthogonalEdgeStyle;rounded=0;orthogonalLoop=1;jettySize=auto;html=1;exitX=1;exitY=0.5;exitDx=0;exitDy=0;entryX=0;entryY=0.75;entryDx=0;entryDy=0;startArrow=classic;startFill=1;strokeWidth=2;fontStyle=1" edge="1" parent="1" source="yTabgHVPEAuYD_ayC8vv-12" target="-lQ-ry36EHElyneKfI74-2">
          <mxGeometry relative="1" as="geometry" />
        </mxCell>
        <mxCell id="yTabgHVPEAuYD_ayC8vv-12" value="EUM" style="rounded=0;whiteSpace=wrap;html=1;" vertex="1" parent="1">
          <mxGeometry x="210" y="520" width="50" height="30" as="geometry" />
        </mxCell>
        <mxCell id="yTabgHVPEAuYD_ayC8vv-19" value="SCP80" style="endArrow=classic;startArrow=classic;html=1;rounded=0;strokeWidth=2;fillColor=#dae8fc;strokeColor=#6c8ebf;" edge="1" parent="1">
          <mxGeometry width="50" height="50" relative="1" as="geometry">
            <mxPoint x="290" y="410" as="sourcePoint" />
            <mxPoint x="210" y="410" as="targetPoint" />
          </mxGeometry>
        </mxCell>
        <mxCell id="yTabgHVPEAuYD_ayC8vv-20" value="SCP03" style="endArrow=classic;startArrow=classic;html=1;rounded=0;strokeWidth=2;fillColor=#d5e8d4;strokeColor=#82b366;" edge="1" parent="1">
          <mxGeometry width="50" height="50" relative="1" as="geometry">
            <mxPoint x="290" y="430" as="sourcePoint" />
            <mxPoint x="210" y="430" as="targetPoint" />
          </mxGeometry>
        </mxCell>
        <mxCell id="yTabgHVPEAuYD_ayC8vv-21" value="TLS" style="endArrow=classic;startArrow=classic;html=1;rounded=0;strokeWidth=2;fillColor=#f8cecc;strokeColor=#b85450;" edge="1" parent="1">
          <mxGeometry width="50" height="50" relative="1" as="geometry">
            <mxPoint x="290" y="450" as="sourcePoint" />
            <mxPoint x="210" y="450" as="targetPoint" />
          </mxGeometry>
        </mxCell>
      </root>
    </mxGraphModel>
  </diagram>
</mxfile>
